<?xml version="1.0" standalone="no"?>
<!DOCTYPE svg PUBLIC "-//W3C//DTD SVG 20010904//EN"
 "http://www.w3.org/TR/2001/REC-SVG-20010904/DTD/svg10.dtd">
<svg version="1.0" xmlns="http://www.w3.org/2000/svg"
 width="256.000000pt" height="256.000000pt" viewBox="0 0 256.000000 256.000000"
 preserveAspectRatio="xMidYMid meet">
<metadata>
Created by potrace 1.11, written by Peter Selinger 2001-2013
</metadata>
<g transform="translate(0.000000,256.000000) scale(0.100000,-0.100000)"
fill="#000000" stroke="none">
<path d="M260 1636 c0 -2 -25 -147 -55 -321 -30 -174 -55 -322 -55 -330 0 -12
14 -15 59 -15 l59 0 13 70 c9 53 19 75 40 96 l28 27 35 -76 c19 -41 37 -85 41
-96 6 -19 14 -21 75 -21 l69 0 -66 136 -66 136 99 99 99 99 -75 0 -75 0 -83
-82 c-48 -47 -82 -74 -79 -63 8 29 57 313 57 330 0 12 -14 15 -60 15 -33 0
-60 -2 -60 -4z"/>
<path d="M1207 1612 c-23 -25 -21 -68 3 -92 41 -41 110 -13 110 45 0 18 -7 41
-16 49 -21 22 -77 20 -97 -2z"/>
<path d="M1580 1600 c-72 -24 -149 -104 -180 -187 -31 -81 -40 -245 -16 -308
34 -89 95 -133 195 -142 67 -6 171 18 218 50 37 25 46 49 63 162 6 44 13 92
16 108 l6 27 -121 0 c-66 0 -122 -3 -124 -7 -3 -5 -8 -27 -12 -50 l-7 -43 57
0 57 0 -7 -46 c-3 -26 -9 -52 -11 -59 -16 -40 -137 -48 -179 -12 -49 42 -54
144 -14 277 30 100 73 140 152 140 56 0 97 -32 97 -75 0 -24 2 -25 66 -25 l66
0 -7 33 c-32 144 -163 210 -315 157z"/>
<path d="M773 1429 c-87 -43 -137 -133 -137 -249 -1 -116 40 -178 138 -210 70
-22 182 5 228 57 17 18 16 21 -11 53 l-28 34 -29 -21 c-79 -55 -164 -30 -176
52 -3 19 3 20 143 23 l146 3 5 44 c11 96 -26 186 -92 220 -43 22 -136 19 -187
-6z m148 -100 c13 -13 19 -30 17 -47 -3 -27 -4 -27 -85 -30 -64 -2 -83 0 -83
10 0 16 28 58 50 75 24 20 78 15 101 -8z"/>
<path d="M2080 1427 c-87 -46 -133 -135 -134 -257 -1 -51 4 -74 24 -110 80
-143 286 -128 373 29 25 43 31 69 35 131 5 94 -16 153 -73 196 -32 24 -49 29
-109 32 -60 3 -78 0 -116 -21z m155 -97 c40 -45 27 -175 -23 -230 -39 -43 -84
-49 -116 -17 -23 23 -26 35 -26 91 0 75 11 110 48 149 32 34 89 37 117 7z"/>
<path d="M1170 1434 c0 -8 -68 -396 -76 -436 l-6 -28 64 0 63 0 40 235 41 235
-63 0 c-35 0 -63 -3 -63 -6z"/>
</g>
</svg>
